<?xml version="1.0" standalone="no"?><!DOCTYPE svg PUBLIC "-//W3C//DTD SVG 1.1//EN" "http://www.w3.org/Graphics/SVG/1.1/DTD/svg11.dtd"><svg t="1583063042162" class="icon" viewBox="0 0 1024 1024" version="1.1" xmlns="http://www.w3.org/2000/svg" p-id="2283" xmlns:xlink="http://www.w3.org/1999/xlink" width="200" height="200"><defs><style type="text/css"></style></defs><path d="M276.48 577.92a24.32 24.32 0 0 0 24.16 21.6h57.28a24.32 24.32 0 0 0 24.16-21.6l4.16-36.64a209.44 209.44 0 0 0 51.68-20.8l28.48 22.56a24.32 24.32 0 0 0 32-1.76l40.48-40.64a24.16 24.16 0 0 0 1.92-32l-22.24-28a210.4 210.4 0 0 0 21.28-50.72l34.08-4a24.32 24.32 0 0 0 21.6-24.16V304a24.16 24.16 0 0 0-21.6-24.16l-33.6-3.84a208 208 0 0 0-20.48-50.24l20.8-26.24a24.48 24.48 0 0 0-1.76-32L497.92 128a24.16 24.16 0 0 0-32-1.92l-25.76 19.36a221.12 221.12 0 0 0-52.8-22.08L384 90.4a24.16 24.16 0 0 0-24-21.44h-57.92a24.32 24.32 0 0 0-24.16 21.44l-3.84 32.96a212.32 212.32 0 0 0-54.08 22.88L193.6 125.28a24.16 24.16 0 0 0-32 1.92l-40.8 40.48a24.32 24.32 0 0 0-1.76 32l22.08 28a201.76 201.76 0 0 0-20 50.88l-35.36 4A24.32 24.32 0 0 0 64 306.72v57.28a24.32 24.32 0 0 0 21.6 24.16l37.44 4.32a214.56 214.56 0 0 0 19.52 46.4l-23.52 29.6a24.32 24.32 0 0 0 1.76 32l40.48 40.32a24.16 24.16 0 0 0 32 1.92L224 519.68a208 208 0 0 0 48 20.32z m-40.32-245.76a94.72 94.72 0 0 1 94.72-94.88 94.88 94.88 0 1 1-94.88 94.88zM572.64 743.84l-16-2.08a144 144 0 0 0-13.12-33.6l9.76-11.84a24.16 24.16 0 0 0-1.44-32l-16-17.92a24 24 0 0 0-32-2.24l-11.68 8.96a140.48 140.48 0 0 0-34.88-16l-1.6-15.04a24.32 24.32 0 0 0-23.68-20.8h-24.16A24 24 0 0 0 384 621.92l-1.92 15.04a153.12 153.12 0 0 0-36.32 14.72l-12-9.76a24.16 24.16 0 0 0-32 1.44l-17.44 17.12a23.68 23.68 0 0 0-2.24 32l10.24 13.28a153.12 153.12 0 0 0-13.76 33.6l-17.44 1.6A24 24 0 0 0 240 764.64v24.32a23.84 23.84 0 0 0 20.96 24l17.92 2.4a134.56 134.56 0 0 0 12.64 31.04l-11.52 14.24a23.84 23.84 0 0 0 1.44 32l16.96 17.44a24 24 0 0 0 32 2.24l14.4-11.2a139.04 139.04 0 0 0 32 14.08l1.92 18.4a23.84 23.84 0 0 0 23.68 21.44h24.32a24 24 0 0 0 24.16-20.96l2.08-17.44a152.96 152.96 0 0 0 34.72-13.44l13.44 10.88a23.84 23.84 0 0 0 32-1.44l16-16a24 24 0 0 0 2.08-32l-10.24-13.28a139.68 139.68 0 0 0 14.56-33.6l16-1.76a23.84 23.84 0 0 0 21.6-23.52V768a24 24 0 0 0-20.48-24.16z m-154.56 97.6a64 64 0 0 1-64-64v-1.44a64 64 0 1 1 64 65.44z" p-id="2284"></path><path d="M956.64 520.48a24.16 24.16 0 0 0-23.2-22.08h-24a184 184 0 0 0-20.16-39.52l13.12-19.68a24 24 0 0 0-4.64-32l-30.24-25.44a23.84 23.84 0 0 0-32 0.8l-16 16a162.56 162.56 0 0 0-44.48-14.4l-4.8-23.04a24 24 0 0 0-25.44-19.2l-40.8 2.4A24 24 0 0 0 682.56 368v23.52A164.16 164.16 0 0 0 640 413.28L619.36 400a23.84 23.84 0 0 0-32 4.48l-25.6 30.56a24 24 0 0 0 0.96 32l17.44 18.4a176 176 0 0 0-12.8 42.72l-24.96 5.12a24.32 24.32 0 0 0-19.2 25.6l3.36 39.36a23.84 23.84 0 0 0 23.04 22.08h27.04a179.68 179.68 0 0 0 19.04 36.48l-15.04 22.88a23.84 23.84 0 0 0 4.48 32l30.4 25.6a23.84 23.84 0 0 0 32 0l19.84-18.56a165.28 165.28 0 0 0 40.64 13.12l5.44 27.2a24.16 24.16 0 0 0 25.6 19.2l39.36-3.36A24.32 24.32 0 0 0 800 751.04v-26.56A174.24 174.24 0 0 0 842.08 704l21.76 14.4a23.84 23.84 0 0 0 32-4.48l25.6-30.24a24.16 24.16 0 0 0-0.96-32l-17.6-18.56a168.16 168.16 0 0 0 13.92-42.88l24-4.96A24.16 24.16 0 0 0 960 560z m-208 114.24a77.6 77.6 0 1 1 70.88-83.84 77.6 77.6 0 0 1-70.56 83.84z" p-id="2285"></path></svg>