<?xml version="1.0" standalone="no"?><!DOCTYPE svg PUBLIC "-//W3C//DTD SVG 1.1//EN" "http://www.w3.org/Graphics/SVG/1.1/DTD/svg11.dtd"><svg t="1583570399692" class="icon" viewBox="0 0 1069 1024" version="1.1" xmlns="http://www.w3.org/2000/svg" p-id="2347" xmlns:xlink="http://www.w3.org/1999/xlink" width="208.7890625" height="200"><defs><style type="text/css"></style></defs><path d="M350.4689 603.789474l0 317.090909c0 50.066986-50.066986 100.133971-100.133971 100.133971-50.066986 0-100.133971-50.066986-100.133971-100.133971l0-317.090909c-50.066986-16.688995-83.444976-66.755981-100.133971-100.133971-33.37799-50.066986-50.066986-116.822967-50.066986-183.578947 0-83.444976 33.37799-166.889952 66.755981-216.956938 50.066986-66.755981 116.822967-100.133971 183.578947-100.133971 66.755981 0 133.511962 33.37799 183.578947 100.133971 50.066986 50.066986 66.755981 133.511962 66.755981 216.956938 0 66.755981-16.688995 133.511962-50.066986 183.578947-16.688995 33.37799-50.066986 83.444976-100.133971 100.133971zm-66.755981 317.090909l0-367.157895c50.066986-16.688995 83.444976-33.37799 116.822967-83.444976 16.688995-50.066986 33.37799-100.133971 33.37799-150.200957 0-66.755981-16.688995-133.511962-50.066986-183.578947-33.37799-33.37799-83.444976-66.755981-133.511962-66.755981-50.066986 0-83.444976 33.37799-116.822967 66.755981-33.37799 50.066986-66.755981 116.822967-66.755981 183.578947 0 50.066986 16.688995 100.133971 33.37799 150.200957 33.37799 50.066986 66.755981 66.755981 116.822967 83.444976l0 367.157895c0 16.688995 16.688995 33.37799 33.37799 33.37799 16.688995 0 33.37799-16.688995 33.37799-33.37799zm700.937799-834.449761c0-16.688995 16.688995-33.37799 33.37799-33.37799 33.37799 0 50.066986 16.688995 50.066986 33.37799l0 300.401914c0 83.444976-66.755981 183.578947-150.200957 216.956938l0 317.090909c0 50.066986-50.066986 100.133971-100.133971 100.133971-66.755981 0-100.133971-50.066986-100.133971-100.133971l0-317.090909c-100.133971-33.37799-150.200957-133.511962-150.200957-216.956938l0-300.401914c0-16.688995 16.688995-33.37799 33.37799-33.37799 16.688995 0 33.37799 16.688995 33.37799 33.37799l0 300.401914c0 66.755981 50.066986 133.511962 116.822967 166.889952l33.37799 0 0 367.157895c0 16.688995 16.688995 33.37799 33.37799 33.37799 16.688995 0 33.37799-16.688995 33.37799-33.37799l0-367.157895 16.688995 0c66.755981-33.37799 116.822967-100.133971 116.822967-166.889952l0-300.401914z" p-id="2348"></path><path d="M700.937799 86.430622c0-16.688995 16.688995-33.37799 50.066986-33.37799 16.688995 0 33.37799 16.688995 33.37799 33.37799l0 350.4689c0 16.688995-16.688995 33.37799-33.37799 33.37799-33.37799 0-50.066986-16.688995-50.066986-33.37799l0-350.4689z" p-id="2349"></path><path d="M851.138756 86.430622c0-16.688995 16.688995-33.37799 33.37799-33.37799 16.688995 0 33.37799 16.688995 33.37799 33.37799l0 350.4689c0 16.688995-16.688995 33.37799-33.37799 33.37799-16.688995 0-33.37799-16.688995-33.37799-33.37799l0-350.4689z" p-id="2350"></path></svg>