<?xml version="1.0" standalone="no"?><!DOCTYPE svg PUBLIC "-//W3C//DTD SVG 1.1//EN" "http://www.w3.org/Graphics/SVG/1.1/DTD/svg11.dtd"><svg t="1583570447724" class="icon" viewBox="0 0 1149 1024" version="1.1" xmlns="http://www.w3.org/2000/svg" p-id="3762" xmlns:xlink="http://www.w3.org/1999/xlink" width="224.4140625" height="200"><defs><style type="text/css"></style></defs><path d="M1109.566611 404.779034a68.832345 68.832345 0 0 0 0-125.022015L636.925044 14.585001a139.17749 139.17749 0 0 0-124.265616 0L40.01786 279.757019a68.832345 68.832345 0 0 0 0 125.022015l132.099753 74.127142c0 1.134599-0.324171 2.21517-0.324171 3.403797v352.266006a45.654107 45.654107 0 0 0 0.648342 7.672051c8.860679 119.34902 207.145378 181.75197 402.458509 181.75197 197.420243 0 397.974141-63.807692 402.674623-185.80411V482.309973c0-1.134599 0-2.21517-0.324171-3.349769l132.099752-74.127141z m-551.090991-309.367354a37.44177 37.44177 0 0 1 16.694816-3.241712 38.144141 38.144141 0 0 1 16.694815 3.241712l440.008336 246.856347-440.062365 246.910375a37.81997 37.81997 0 0 1-16.694815 3.241712 38.19817 38.19817 0 0 1-16.694815-3.241712l-440.008337-246.910375z m326.926627 736.787044v1.890998c-0.3782 34.308116-118.376506 97.251351-310.069726 97.251352s-309.745554-62.997264-310.123754-97.251352a47.815248 47.815248 0 0 0-0.324171-5.024653V530.665506l248.261089 139.285546a135.071321 135.071321 0 0 0 124.265616 0l248.261088-139.285546v301.479189z" fill="#309EEF" p-id="3763"></path><path d="M1095.032937 426.22836a47.653162 47.653162 0 0 0-47.653162 47.653162v378.1997a47.653162 47.653162 0 1 0 95.360353 0v-378.1997a47.653162 47.653162 0 0 0-47.707191-47.653162z" fill="#309EEF" p-id="3764"></path></svg>