<?xml version="1.0" standalone="no"?><!DOCTYPE svg PUBLIC "-//W3C//DTD SVG 1.1//EN" "http://www.w3.org/Graphics/SVG/1.1/DTD/svg11.dtd"><svg t="1585295145656" class="icon" viewBox="0 0 1024 1024" version="1.1" xmlns="http://www.w3.org/2000/svg" p-id="3499" xmlns:xlink="http://www.w3.org/1999/xlink" width="200" height="200"><defs><style type="text/css"></style></defs><path d="M858.48 410.096l-66.896 0L791.584 219.408c0-117.856-95.92-213.776-213.776-213.776l-130.848 0c-117.872 0-213.76 95.92-213.76 213.776l0 190.688-67.728 0c-46.512 0-84.336 37.808-84.336 84.32l0 439.632c0 46.448 37.824 84.32 84.336 84.32l693.008 0c46.544 0 84.368-37.856 84.368-84.32L942.848 494.416C942.864 447.92 905.024 410.096 858.48 410.096L858.48 410.096zM330.672 219.408c0-64.112 52.176-116.272 116.288-116.272l130.848 0c64.144 0 116.272 52.16 116.272 116.272l0 190.688L330.672 410.096 330.672 219.408 330.672 219.408zM330.672 219.408" p-id="3500"></path></svg>