<?xml version="1.0" standalone="no"?><!DOCTYPE svg PUBLIC "-//W3C//DTD SVG 1.1//EN" "http://www.w3.org/Graphics/SVG/1.1/DTD/svg11.dtd"><svg t="1585294789561" class="icon" viewBox="0 0 1024 1024" version="1.1" xmlns="http://www.w3.org/2000/svg" p-id="4975" xmlns:xlink="http://www.w3.org/1999/xlink" width="200" height="200"><defs><style type="text/css"></style></defs><path d="M512 960C264.6 960 64 759.4 64 512S264.6 64 512 64s448 200.6 448 448-200.6 448-448 448z m0-840c-216.5 0-392 175.5-392 392s175.5 392 392 392 392-175.5 392-392-175.5-392-392-392z m158.6 598.5c-20.1 8.1-52.6 9-102.3 9-2.9-12.9-11.5-34.4-19.2-46.8 37.3 1.9 75.6 1.4 87.1 1 10.5 0 14.3-3.8 14.3-13.9v-83.7h-217c-12.4 53.5-36.3 106.6-81.7 145.3-6.7-9.6-23.9-25.8-33.9-32.5 74.6-64 81.7-157.8 81.7-232.8V314h297.8v354.7c-0.1 28.7-7.7 42.6-26.8 49.8zM650.5 357H444.9v70.8h205.6V357z m0 113.3H444.9c0 22-1.4 45.9-4.3 70.8h209.9v-70.8z" p-id="4976"></path></svg>