<?xml version="1.0" standalone="no"?><!DOCTYPE svg PUBLIC "-//W3C//DTD SVG 1.1//EN" "http://www.w3.org/Graphics/SVG/1.1/DTD/svg11.dtd"><svg t="1584780239900" class="icon" viewBox="0 0 1029 1024" version="1.1" xmlns="http://www.w3.org/2000/svg" p-id="2683" xmlns:xlink="http://www.w3.org/1999/xlink" width="200.9765625" height="200"><defs><style type="text/css"></style></defs><path d="M864.969851 666.009132l160.730594 328.767124c7.305936 14.611872 0 21.917808-14.611873 21.917808H17.481266c-14.611872 7.305936-21.917808-7.305936-14.611872-14.611872l160.730594-328.767124c0-7.305936 7.305936-14.611872 14.611872-14.611872h131.506849c7.305936 0 7.305936 0 14.611873 7.305936l29.223744 29.223745c7.305936 14.611872 14.611872 21.917808 29.223744 29.223744H222.047476c-7.305936 0-14.611872 7.305936-14.611872 7.305936l-102.283105 219.178082h825.570777l-102.283105-219.178082c0-7.305936-7.305936-7.305936-14.611873-7.305936H645.791769c14.611872-7.305936 21.917808-14.611872 29.223744-29.223744l29.223744-29.223745c0-7.305936 7.305936-7.305936 14.611872-7.305936h138.812786l7.305936 7.305936" p-id="2684"></path><path d="M485.061175 1.16895C660.403641-13.442922 806.522362 110.757991 806.522362 271.488584c0 204.56621-182.648402 248.401826-270.319634 445.662101-7.305936 14.611872-29.223744 14.611872-36.529681 0-80.365297-175.342466-241.09589-226.484018-270.319634-387.214612C200.129668 169.205479 317.024645 15.780822 485.061175 1.16895zM514.284919 476.054795c124.200913 0 219.178082-87.671233 219.178083-204.566211S638.485833 74.228311 514.284919 74.228311 295.106837 161.899543 295.106837 278.794521s94.977169 197.260274 219.178082 197.260274z" p-id="2685"></path></svg>