<?xml version="1.0" standalone="no"?><!DOCTYPE svg PUBLIC "-//W3C//DTD SVG 1.1//EN" "http://www.w3.org/Graphics/SVG/1.1/DTD/svg11.dtd"><svg t="1589353980925" class="icon" viewBox="0 0 1024 1024" version="1.1" xmlns="http://www.w3.org/2000/svg" p-id="1199" xmlns:xlink="http://www.w3.org/1999/xlink" width="200" height="200"><defs><style type="text/css"></style></defs><path d="M96.25 106.21c21.36-24.39 53.3-38.94 85.71-39.19 211.34-0.05 422.69-0.01 634.03-0.02 12.97 0.1 26.06-0.6 38.9 1.74 31.18 5.19 59.72 23.92 77.07 50.32 11.81 17.69 18.59 38.69 19.29 59.96v373c1.62 37.8-16.88 75.62-47.57 97.7-14.2 10.42-30.81 17.54-48.16 20.59-11.7 2.34-23.66 1.57-35.5 1.69-21.84 0-43.68-0.01-65.52 0.01v68.98c19.49 0.02 38.98 0 58.48 0.01 9.38-0.15 18.83 0.16 28.07 1.99 23.43 4.49 45.23 17.06 60.77 35.17 12.52 14.35 21.08 32.13 24.46 50.87 4.5 24.26 0.43 50.06-11.58 71.64-15.24 27.89-43.45 48.25-74.77 53.77-12.5 2.41-25.27 1.71-37.92 1.81H215.02c-12.19-0.07-24.5 0.53-36.54-1.8-32.89-5.72-62.29-27.94-76.96-57.89-10.2-20.22-13.52-43.71-9.75-66 5.41-33.45 27.85-63.51 58.28-78.35 16.01-8.1 34.09-11.66 51.98-11.21h61.72v-68.99c-27.89-0.01-55.78-0.02-83.67 0-33.53-0.55-66.24-16.88-87.19-43.01-16.25-19.91-25.48-45.35-25.89-71.04-0.01-125.32 0.01-250.65-0.01-375.97 0.24-27.69 10.79-55.14 29.26-75.78m74.3 8.55c-23.88 4.36-44.79 22.04-52.85 44.97-3.37 9.02-4.51 18.72-4.2 28.3v358.94c0.04 6.06-0.26 12.16 0.67 18.18 2.54 19.22 13.57 37.13 29.6 48.04 11.95 8.34 26.62 12.81 41.21 12.31 212.68-0.01 425.36 0 638.04 0 9.35-0.12 18.88 0.68 28.03-1.81 15.24-3.59 29.17-12.5 38.79-24.85 9.99-12.6 15.44-28.77 14.92-44.85-0.02-124.33-0.01-248.66-0.01-372.99-0.6-28.32-20.43-54.85-47.31-63.67-14.21-5.26-29.56-3.55-44.38-3.83-209.69 0-419.37 0.01-629.05 0-4.51 0.04-9.02 0.47-13.46 1.26M310.25 672c-0.01 31.33 0.01 62.65-0.01 93.98-0.41 11.47-10.7 21.42-22.18 21.52h-76.02c-9.87 0.09-19.95-0.65-29.58 2.05-20.6 5.23-37.7 22.01-43.35 42.5-4.21 14.39-2.64 30.29 4.1 43.67 7.78 15.74 22.64 27.82 39.7 32.07 6.53 1.7 13.32 2.08 20.04 1.97 198.34-0.02 396.68-0.01 595.02-0.01 8.49-0.09 16.99 0.19 25.48-0.15 13.59-0.63 26.85-6.06 37.09-14.98 14.86-12.82 22.94-33.08 20.64-52.6-1.75-16.58-10.7-32.24-24.09-42.17-10.54-8.1-23.82-12.32-37.07-12.35H737c-4.69-0.02-9.55 0.41-13.98-1.42-8.69-3.06-14.86-11.86-15.02-21.02-0.01-31.02 0-62.04 0-93.06H310.25z" fill="#0C00BF" p-id="1200"></path><path d="M327.24 251.33c22.18-0.45 44.47 5.5 63.36 17.17 20.85 12.77 37.5 32.27 46.73 54.93 9.54 22.98 11.22 49.05 5.1 73.14-8.14 32.53-31.21 60.88-61.35 75.53-33.47 16.76-75.07 15.76-107.72-2.54-24.98-13.73-44.56-36.98-53.72-63.99-6.28-18.06-7.87-37.7-4.82-56.57 3.86-24.37 15.79-47.44 33.59-64.55 20.72-20.64 49.62-32.59 78.83-33.12m-8.72 47.43c-18.32 2.94-35.25 13.54-45.87 28.75-10.06 14.13-14.59 32.14-12.19 49.34 3.44 28.27 25.9 52.94 53.77 58.89 14.86 3.52 30.86 1.75 44.68-4.7 15.83-7.31 28.75-20.75 35.33-36.9 6.75-16.08 7-34.72 0.76-51-5.07-13.57-14.52-25.44-26.58-33.45-14.45-9.79-32.68-13.83-49.9-10.93zM683.24 252.34c20.24-0.92 40.75 3.39 58.73 12.77 28.19 14.37 49.93 40.78 58.53 71.24 7.03 24.36 5.82 51.02-3.44 74.63-10.66 27.52-32.26 50.6-59.05 63-23.63 11.17-51.08 13.85-76.48 7.78-33.5-7.8-62.78-31.43-77.62-62.43-16.47-33.48-15.32-74.91 3.06-107.39 15.58-28.26 43.45-49.4 74.91-56.64 7.01-1.65 14.17-2.6 21.36-2.96m-2.15 46.82c-17.35 1.85-33.8 10.54-45.16 23.76-13.43 15.35-19.67 36.81-16.16 56.94 1.89 11.7 6.88 22.89 14.32 32.13 11.11 14.12 27.93 23.62 45.77 25.84 17.03 2.3 34.81-2.23 48.83-12.13 14.03-9.79 24.27-24.9 28.03-41.6 3.54-14.98 1.74-31.1-4.81-45.01-6.54-13.96-17.8-25.67-31.55-32.67-12.01-6.17-25.84-8.81-39.27-7.26z" fill="#0C00BF" p-id="1201"></path><path d="M393.23 746.19c7.14-1.86 15.11 0.08 20.67 4.93 5.19 4.36 8.11 11.11 8.09 17.86 0.02 21.02 0.01 42.05 0.01 63.07 0.04 6.29-2.31 12.66-6.9 17.04-7.69 8.11-21.56 9-30.29 2.08-5.99-4.42-9.41-11.79-9.29-19.19-0.02-21-0.06-42.01 0.01-63.01-0.18-10.47 7.42-20.49 17.7-22.78zM497.35 746.59c13.65-4.95 29.67 6.11 30.08 20.55 0.17 21.61 0.01 43.24 0.09 64.86 0.26 8.39-4.38 16.68-11.69 20.8-6.66 3.85-15.27 4.02-22.09 0.47-7.81-3.86-13.01-12.55-12.5-21.27 0.03-21.35 0.01-42.69 0-64.03-0.03-9.62 6.91-18.71 16.11-21.38zM607.18 746.2c13.34-3.88 28.32 6.8 28.8 20.71 0.06 22.03-0.01 44.06 0.03 66.1 0.1 8.26-4.83 16.31-12.16 20.09-4.88 2.67-10.71 3.31-16.11 2.16-11.34-2.32-19.22-13.89-18-25.27 0.03-20.65-0.01-41.29 0.02-61.94 0.06-10.11 7.62-19.49 17.42-21.85z" fill="#FC4E7F" p-id="1202"></path></svg>