<?xml version="1.0" standalone="no"?><!DOCTYPE svg PUBLIC "-//W3C//DTD SVG 1.1//EN" "http://www.w3.org/Graphics/SVG/1.1/DTD/svg11.dtd"><svg t="1585294743200" class="icon" viewBox="0 0 1024 1024" version="1.1" xmlns="http://www.w3.org/2000/svg" p-id="4196" xmlns:xlink="http://www.w3.org/1999/xlink" width="200" height="200"><defs><style type="text/css"></style></defs><path d="M512 960C264.6 960 64 759.4 64 512S264.6 64 512 64s448 200.6 448 448-200.6 448-448 448z m0-840c-216.5 0-392 175.5-392 392s175.5 392 392 392 392-175.5 392-392-175.5-392-392-392z m113.4 601.8v-29.2H400.2v31.1h-45.4v-403h317.9v401.1h-47.3z m0-356.1H400.2v116.6h225.2V365.7z m0 160.6H400.2v121.4h225.2V526.3z" p-id="4197"></path></svg>