<?xml version="1.0" standalone="no"?><!DOCTYPE svg PUBLIC "-//W3C//DTD SVG 1.1//EN" "http://www.w3.org/Graphics/SVG/1.1/DTD/svg11.dtd"><svg t="1584956971061" class="icon" viewBox="0 0 1024 1024" version="1.1" xmlns="http://www.w3.org/2000/svg" p-id="2672" xmlns:xlink="http://www.w3.org/1999/xlink" width="200" height="200"><defs><style type="text/css"></style></defs><path d="M858.427861 820.218905H180.855721l137.552239-137.552238h402.467662zM838.049751 1024H196.139303c-25.472637 0-50.945274-25.472637-50.945273-50.945274v-35.661691c0-25.472637 20.378109-50.945274 50.945273-50.945274h641.910448c25.472637 0 50.945274 25.472637 50.945274 50.945274v35.661691c0 25.472637-20.378109 50.945274-50.945274 50.945274zM180.855721 361.711443L114.626866 305.671642c-10.189055-10.189055-10.189055-25.472637 0-35.661692l10.189054-10.189054c10.189055-10.189055 25.472637-15.283582 35.661692-5.094528l61.134328 56.039801c10.189055 10.189055 10.189055 25.472637 5.094528 35.661692l-10.189055 15.283582c-10.189055 10.189055-25.472637 10.189055-35.661692 0zM369.353234 183.402985l-15.283582 10.189055c-10.189055 10.189055-25.472637 10.189055-35.661692 0L262.368159 132.457711c-10.189055-10.189055-10.189055-30.567164 0-35.661691l10.189055-10.189055c10.189055-10.189055 25.472637-10.189055 35.661691 0l56.039801 61.134329c15.283582 10.189055 15.283582 25.472637 5.094528 35.661691zM527.283582 137.552239H512c-15.283582 0-25.472637-10.189055-25.472637-25.472637V30.567164c0-15.283582 10.189055-25.472637 25.472637-25.472637h15.283582c15.283582 0 25.472637 10.189055 25.472637 25.472637v86.606965c0 10.189055-10.189055 20.378109-25.472637 20.37811zM802.38806 382.089552l-10.189055-15.283582c-5.094527-10.189055-5.094527-25.472637 10.189055-35.661691l71.323383-40.756219c10.189055-5.094527 25.472637-5.094527 35.661691 10.189054l10.189055 15.283583c5.094527 10.189055 5.094527 25.472637-10.189055 35.661691l-71.323383 40.756219c-15.283582 10.189055-30.567164 5.094527-35.661691-10.189055zM725.970149 224.159204l-10.189054-15.283582c-10.189055-10.189055-10.189055-25.472637-5.094528-35.661692L766.726368 106.985075c10.189055-10.189055 25.472637-10.189055 35.661692-5.094528l15.283582 15.283582c10.189055 10.189055 10.189055 25.472637 5.094527 35.661692L766.726368 219.064677c-10.189055 10.189055-30.567164 10.189055-40.756219 5.094527z" fill="#949494" p-id="2673"></path><path d="M517.094527 259.820896c-132.457711 0-234.348259 122.268657-234.348258 270.00995v270.00995h473.791044v-270.00995c0-147.741294-106.985075-270.00995-239.442786-270.00995zM440.676617 443.223881v56.039801c0 20.378109-15.283582 35.661692-35.661692 35.661691-20.378109 0-35.661692-15.283582-35.661691-35.661691V427.940299c0-20.378109 15.283582-35.661692 35.661691-35.661692 15.283582 0 30.567164 15.283582 35.661692 35.661692v15.283582z" fill="#949494" p-id="2674"></path></svg>